<?xml version="1.0" standalone="no"?>
<!DOCTYPE svg PUBLIC "-//W3C//DTD SVG 1.1//EN"
"http://www.w3.org/Graphics/SVG/1.1/DTD/svg11.dtd">

<svg width="405" height="224" view_box="0 0 405 224"
xmlns="http://www.w3.org/2000/svg"
xmlns:link="http://www.w3.org/1999/xlink">\n\n<desc>Généré par Mocodo 2.3.7 le Mon, 24 Jan 2022 06:53:53</desc>

<rect id="frame" x="0" y="0" width="405" height="224" fill="#f5f5f5" stroke="none" stroke-width="0"/>

<!-- Association POSSEDE -->
<line x1="236" y1="54" x2="85" y2="54" stroke="#bf812d" stroke-width="1.5"/>
<text x="167" y="71.0" fill="#01665e" font-family="Arial" font-size="12">0,N</text>
<line x1="85" y1="170" x2="85" y2="54" stroke="#bf812d" stroke-width="1.5"/>
<text x="91.0" y="116" fill="#01665e" font-family="Arial" font-size="12">1,1</text>
<g id="association-POSSEDE">
	<path d="M 147 26 a 14 14 90 0 1 14 14 V 53 h -152 V 40 a 14 14 90 0 1 14 -14" fill="#dfc27d" stroke="#dfc27d" stroke-width="0"/>
	<path d="M 161 53.0 v 15 a 14 14 90 0 1 -14 14 H 23 a 14 14 90 0 1 -14 -14 V 53.0 H 152" fill="#f6e8c3" stroke="#f6e8c3" stroke-width="0"/>
	<rect x="9" y="26" width="152" height="56" fill="none" rx="14" stroke="#bf812d" stroke-width="3"/>
	<line x1="9" y1="53" x2="161" y2="53" stroke="#bf812d" stroke-width="1.5"/>
	<text x="50" y="46.3" fill="#000000" font-family="Arial Black" font-size="13">POSSEDE</text>
	<text x="18" y="71.2" fill="#000000" font-family="Arial" font-size="14">position dans la liste</text>
</g>

<!-- Association DEFINIT -->
<line x1="85" y1="170" x2="236" y2="170" stroke="#bf812d" stroke-width="1.5"/>
<text x="136" y="187.0" fill="#01665e" font-family="Arial" font-size="12">0,N</text>
<line x1="352" y1="170" x2="236" y2="170" stroke="#bf812d" stroke-width="1.5"/>
<text x="281" y="187.0" fill="#01665e" font-family="Arial" font-size="12">0,N</text>
<g id="association-DEFINIT">
	<path d="M 261 142 a 14 14 90 0 1 14 14 V 169 h -78 V 156 a 14 14 90 0 1 14 -14" fill="#dfc27d" stroke="#dfc27d" stroke-width="0"/>
	<path d="M 275 169.0 v 15 a 14 14 90 0 1 -14 14 H 211 a 14 14 90 0 1 -14 -14 V 169.0 H 78" fill="#f6e8c3" stroke="#f6e8c3" stroke-width="0"/>
	<rect x="197" y="142" width="78" height="56" fill="none" rx="14" stroke="#bf812d" stroke-width="3"/>
	<line x1="197" y1="169" x2="275" y2="169" stroke="#bf812d" stroke-width="1.5"/>
	<text x="206" y="162.3" fill="#000000" font-family="Arial Black" font-size="13">DEFINIT</text>
</g>

<!-- Entity LISTE -->
<g id="entity-LISTE">
	<g id="frame-LISTE">
		<rect x="194" y="9" width="84" height="28" fill="#80cdc1" stroke="#80cdc1" stroke-width="0"/>
		<rect x="194" y="37.0" width="84" height="62" fill="#c7eae5" stroke="#c7eae5" stroke-width="0"/>
		<rect x="194" y="9" width="84" height="90" fill="none" stroke="#35978f" stroke-width="3"/>
		<line x1="194" y1="37" x2="278" y2="37" stroke="#35978f" stroke-width="1.5"/>
	</g>
	<text x="214" y="29.3" fill="#000000" font-family="Arial Black" font-size="13">LISTE</text>
	<text x="202" y="53.2" fill="#000000" font-family="Arial" font-size="14">code_liste</text>
	<line x1="202" y1="56" x2="269" y2="56" stroke="#000000" stroke-width="1.2"/>
	<text x="202" y="71.2" fill="#000000" font-family="Arial" font-size="14">nom</text>
	<text x="202" y="89.2" fill="#000000" font-family="Arial" font-size="14">position</text>
</g>

<!-- Entity CARTE -->
<g id="entity-CARTE">
	<g id="frame-CARTE">
		<rect x="40" y="125" width="90" height="28" fill="#80cdc1" stroke="#80cdc1" stroke-width="0"/>
		<rect x="40" y="153.0" width="90" height="62" fill="#c7eae5" stroke="#c7eae5" stroke-width="0"/>
		<rect x="40" y="125" width="90" height="90" fill="none" stroke="#35978f" stroke-width="3"/>
		<line x1="40" y1="153" x2="130" y2="153" stroke="#35978f" stroke-width="1.5"/>
	</g>
	<text x="60" y="145.3" fill="#000000" font-family="Arial Black" font-size="13">CARTE</text>
	<text x="48" y="169.2" fill="#000000" font-family="Arial" font-size="14">code_carte</text>
	<line x1="48" y1="172" x2="122" y2="172" stroke="#000000" stroke-width="1.2"/>
	<text x="48" y="187.2" fill="#000000" font-family="Arial" font-size="14">titre</text>
	<text x="48" y="205.2" fill="#000000" font-family="Arial" font-size="14">couleur</text>
</g>

<!-- Entity LABEL -->
<g id="entity-LABEL">
	<g id="frame-LABEL">
		<rect x="308" y="125" width="88" height="28" fill="#80cdc1" stroke="#80cdc1" stroke-width="0"/>
		<rect x="308" y="153.0" width="88" height="62" fill="#c7eae5" stroke="#c7eae5" stroke-width="0"/>
		<rect x="308" y="125" width="88" height="90" fill="none" stroke="#35978f" stroke-width="3"/>
		<line x1="308" y1="153" x2="396" y2="153" stroke="#35978f" stroke-width="1.5"/>
	</g>
	<text x="328" y="145.3" fill="#000000" font-family="Arial Black" font-size="13">LABEL</text>
	<text x="316" y="169.2" fill="#000000" font-family="Arial" font-size="14">code_label</text>
	<line x1="316" y1="172" x2="388" y2="172" stroke="#000000" stroke-width="1.2"/>
	<text x="316" y="187.2" fill="#000000" font-family="Arial" font-size="14">nom</text>
	<text x="316" y="205.2" fill="#000000" font-family="Arial" font-size="14">couleur</text>
</g>
</svg>