<?xml version="1.0" standalone="no"?>
<!DOCTYPE svg PUBLIC "-//W3C//DTD SVG 1.1//EN"
"http://www.w3.org/Graphics/SVG/1.1/DTD/svg11.dtd">

<svg width="344" height="216" view_box="0 0 344 216"
xmlns="http://www.w3.org/2000/svg"
xmlns:link="http://www.w3.org/1999/xlink">\n\n<desc>Généré par Mocodo 2.3.7 le Tue, 25 Jan 2022 00:42:29</desc>

<rect id="frame" x="0" y="0" width="344" height="216" fill="#f5f5f5" stroke="none" stroke-width="0"/>

<!-- Association CONTAINS -->
<line x1="57" y1="162" x2="57" y2="63" stroke="#bf812d" stroke-width="1.5"/>
<text x="63.0" y="108" fill="#01665e" font-family="Arial" font-size="12">0,N</text>
<line x1="179" y1="63" x2="57" y2="63" stroke="#bf812d" stroke-width="1.5"/>
<text x="114" y="80.0" fill="#01665e" font-family="Arial" font-size="12">1,1</text>
<g id="association-CONTAINS">
	<path d="M 91 35 a 14 14 90 0 1 14 14 V 62 h -96 V 49 a 14 14 90 0 1 14 -14" fill="#dfc27d" stroke="#dfc27d" stroke-width="0"/>
	<path d="M 105 62.0 v 15 a 14 14 90 0 1 -14 14 H 23 a 14 14 90 0 1 -14 -14 V 62.0 H 96" fill="#f6e8c3" stroke="#f6e8c3" stroke-width="0"/>
	<rect x="9" y="35" width="96" height="56" fill="none" rx="14" stroke="#bf812d" stroke-width="3"/>
	<line x1="9" y1="62" x2="105" y2="62" stroke="#bf812d" stroke-width="1.5"/>
	<text x="18" y="55.3" fill="#000000" font-family="Arial Black" font-size="13">CONTAINS</text>
</g>

<!-- Association DEFINES -->
<line x1="294" y1="162" x2="294" y2="63" stroke="#bf812d" stroke-width="1.5"/>
<text x="300.0" y="108" fill="#01665e" font-family="Arial" font-size="12">0,N</text>
<line x1="179" y1="63" x2="294" y2="63" stroke="#bf812d" stroke-width="1.5"/>
<text x="226" y="80.0" fill="#01665e" font-family="Arial" font-size="12">0,N</text>
<g id="association-DEFINES">
	<path d="M 321 35 a 14 14 90 0 1 14 14 V 62 h -82 V 49 a 14 14 90 0 1 14 -14" fill="#dfc27d" stroke="#dfc27d" stroke-width="0"/>
	<path d="M 335 62.0 v 15 a 14 14 90 0 1 -14 14 H 267 a 14 14 90 0 1 -14 -14 V 62.0 H 82" fill="#f6e8c3" stroke="#f6e8c3" stroke-width="0"/>
	<rect x="253" y="35" width="82" height="56" fill="none" rx="14" stroke="#bf812d" stroke-width="3"/>
	<line x1="253" y1="62" x2="335" y2="62" stroke="#bf812d" stroke-width="1.5"/>
	<text x="262" y="55.3" fill="#000000" font-family="Arial Black" font-size="13">DEFINES</text>
</g>

<!-- Entity TAG -->
<g id="entity-TAG">
	<g id="frame-TAG">
		<rect x="257" y="117" width="74" height="28" fill="#80cdc1" stroke="#80cdc1" stroke-width="0"/>
		<rect x="257" y="145.0" width="74" height="62" fill="#c7eae5" stroke="#c7eae5" stroke-width="0"/>
		<rect x="257" y="117" width="74" height="90" fill="none" stroke="#35978f" stroke-width="3"/>
		<line x1="257" y1="145" x2="331" y2="145" stroke="#35978f" stroke-width="1.5"/>
	</g>
	<text x="278" y="137.3" fill="#000000" font-family="Arial Black" font-size="13">TAG</text>
	<text x="265" y="161.2" fill="#000000" font-family="Arial" font-size="14">tag code</text>
	<line x1="265" y1="164" x2="322" y2="164" stroke="#000000" stroke-width="1.2"/>
	<text x="265" y="179.2" fill="#000000" font-family="Arial" font-size="14">name</text>
	<text x="265" y="197.2" fill="#000000" font-family="Arial" font-size="14">color</text>
</g>

<!-- Entity LIST -->
<g id="entity-LIST">
	<g id="frame-LIST">
		<rect x="21" y="117" width="72" height="28" fill="#80cdc1" stroke="#80cdc1" stroke-width="0"/>
		<rect x="21" y="145.0" width="72" height="62" fill="#c7eae5" stroke="#c7eae5" stroke-width="0"/>
		<rect x="21" y="117" width="72" height="90" fill="none" stroke="#35978f" stroke-width="3"/>
		<line x1="21" y1="145" x2="93" y2="145" stroke="#35978f" stroke-width="1.5"/>
	</g>
	<text x="40" y="137.3" fill="#000000" font-family="Arial Black" font-size="13">LIST</text>
	<text x="29" y="161.2" fill="#000000" font-family="Arial" font-size="14">list code</text>
	<line x1="29" y1="164" x2="84" y2="164" stroke="#000000" stroke-width="1.2"/>
	<text x="29" y="179.2" fill="#000000" font-family="Arial" font-size="14">name</text>
	<text x="29" y="197.2" fill="#000000" font-family="Arial" font-size="14">position</text>
</g>

<!-- Entity CARD -->
<g id="entity-CARD">
	<g id="frame-CARD">
		<rect x="138" y="9" width="82" height="28" fill="#80cdc1" stroke="#80cdc1" stroke-width="0"/>
		<rect x="138" y="37.0" width="82" height="80" fill="#c7eae5" stroke="#c7eae5" stroke-width="0"/>
		<rect x="138" y="9" width="82" height="108" fill="none" stroke="#35978f" stroke-width="3"/>
		<line x1="138" y1="37" x2="220" y2="37" stroke="#35978f" stroke-width="1.5"/>
	</g>
	<text x="158" y="29.3" fill="#000000" font-family="Arial Black" font-size="13">CARD</text>
	<text x="146" y="53.2" fill="#000000" font-family="Arial" font-size="14">card code</text>
	<line x1="146" y1="56" x2="211" y2="56" stroke="#000000" stroke-width="1.2"/>
	<text x="146" y="71.2" fill="#000000" font-family="Arial" font-size="14">title</text>
	<text x="146" y="89.2" fill="#000000" font-family="Arial" font-size="14">position</text>
	<text x="146" y="107.2" fill="#000000" font-family="Arial" font-size="14">color</text>
</g>
</svg>